HIERARCHY
ROOT Pelvis
{
	OFFSET 0.000000 0.000000 0.000000
	CHANNELS 6 Xposition Yposition Zposition Xrotation Yrotation Zrotation
	JOINT LeftUpLeg_virtual
	{
		OFFSET 0.000000 0.000000 0.000000
		CHANNELS 3 Xrotation Yrotation Zrotation
		JOINT LeftUpLeg
		{
			OFFSET 18.735201 -5.666702 -4.541200
			CHANNELS 3 Xrotation Yrotation Zrotation
			JOINT LeftLeg
			{
				OFFSET -0.021200 -31.938179 0.493100
				CHANNELS 3 Xrotation Yrotation Zrotation
				JOINT LeftFoot
				{
					OFFSET 0.021200 -31.938179 -4.336299
					CHANNELS 3 Xrotation Yrotation Zrotation
					JOINT LeftToeBase
					{
						OFFSET 0.943001 -26.722000 15.023500
						CHANNELS 3 Xrotation Yrotation Zrotation
						End Site
						{
							OFFSET 0 0 0
						}
					}
				}
			}
		}
	}
	JOINT RightUpLeg_virtual
	{
		OFFSET 0.000000 0.000000 0.000000
		CHANNELS 3 Xrotation Yrotation Zrotation
		JOINT RightUpLeg
		{
			OFFSET -18.735201 -5.666702 -4.541200
			CHANNELS 3 Xrotation Yrotation Zrotation
			JOINT RightLeg
			{
				OFFSET 0.018946 -31.938133 0.493100
				CHANNELS 3 Xrotation Yrotation Zrotation
				JOINT RightFoot
				{
					OFFSET -0.018946 -31.938126 -4.336299
					CHANNELS 3 Xrotation Yrotation Zrotation
					JOINT RightToeBase
					{
						OFFSET -0.943001 -26.722004 15.023500
						CHANNELS 3 Xrotation Yrotation Zrotation
						End Site
						{
							OFFSET 0 0 0
						}
					}
				}
			}
		}
	}
	JOINT Hips_virtual
	{
		OFFSET 0.000000 0.000000 0.000000
		CHANNELS 3 Xrotation Yrotation Zrotation
		JOINT Hips
		{
			OFFSET -0.000000 -0.000000 -0.000000
			CHANNELS 3 Xrotation Yrotation Zrotation
			JOINT Spine
			{
				OFFSET 0.000000 10.199997 -0.299500
				CHANNELS 3 Xrotation Yrotation Zrotation
				JOINT Spine1
				{
					OFFSET 0.000000 11.900002 -1.516600
					CHANNELS 3 Xrotation Yrotation Zrotation
					JOINT Spine2
					{
						OFFSET 0.000000 13.600006 -2.842500
						CHANNELS 3 Xrotation Yrotation Zrotation
						JOINT Neck_virtual
						{
							OFFSET 0.000000 0.000000 0.000000
							CHANNELS 3 Xrotation Yrotation Zrotation
							JOINT Neck
							{
								OFFSET 0.000000 9.624100 -2.890100
								CHANNELS 3 Xrotation Yrotation Zrotation
								JOINT Head
								{
									OFFSET 0.000000 14.068802 -1.351900
									CHANNELS 3 Xrotation Yrotation Zrotation
									End Site
									{
										OFFSET 0 0 0
									}
								}
							}
						}
						JOINT LeftShoulder_virtual
						{
							OFFSET 0.000000 0.000000 0.000000
							CHANNELS 3 Xrotation Yrotation Zrotation
							JOINT LeftShoulder
							{
								OFFSET 15.263000 10.923401 -0.547700
								CHANNELS 3 Xrotation Yrotation Zrotation
								JOINT LeftArm
								{
									OFFSET 25.438599 -2.830597 -13.032500
									CHANNELS 3 Xrotation Yrotation Zrotation
									JOINT LeftForeArm
									{
										OFFSET 29.960503 0.000000 0.000000
										CHANNELS 3 Xrotation Yrotation Zrotation
										JOINT LeftHand
										{
											OFFSET 27.849251 0.000000 0.000000
											CHANNELS 3 Xrotation Yrotation Zrotation
											End Site
											{
												OFFSET 0 0 0
											}
										}
									}
								}
							}
						}
						JOINT RightShoulder_virtual
						{
							OFFSET 0.000000 0.000000 0.000000
							CHANNELS 3 Xrotation Yrotation Zrotation
							JOINT RightShoulder
							{
								OFFSET -15.263000 10.923401 -0.547700
								CHANNELS 3 Xrotation Yrotation Zrotation
								JOINT RightArm
								{
									OFFSET -25.438599 -2.830597 -13.032500
									CHANNELS 3 Xrotation Yrotation Zrotation
									JOINT RightForeArm
									{
										OFFSET -29.960503 0.000000 0.000000
										CHANNELS 3 Xrotation Yrotation Zrotation
										JOINT RightHand
										{
											OFFSET -27.849251 0.000000 0.000000
											CHANNELS 3 Xrotation Yrotation Zrotation
											End Site
											{
												OFFSET 0 0 0
											}
										}
									}
								}
							}
						}
					}
				}
			}
		}
	}
}
MOTION
Frames: 10
Frame Time: 0.03333333
4.477240 191.534485 -23.529753 0.000000 0.000000 0.000000 -19.018604 10.286747 -3.072881 -69.729565 9.091859 18.558608 77.008990 -3.066244 -4.240538 14.113567 -1.919694 -14.538882 0.000000 0.000000 0.000000 -27.509063 6.884152 -8.056994 -66.419737 6.356432 -22.800691 88.659503 1.393051 5.463087 20.254660 -1.854583 20.860646 0.000000 0.000000 0.000000 3.519052 3.525659 0.591501 0.522446 2.272350 2.392477 18.305937 -1.526928 0.489536 12.611587 -0.735418 -0.912093 0.000000 0.000000 0.000000 6.478806 -0.190691 -2.216721 1.246649 0.229310 0.362299 0.000000 0.000000 0.000000 12.130138 0.296946 2.689969 3.650235 -10.623752 17.228116 -68.141130 -35.372061 2.681489 -12.118048 -68.324424 16.460980 0.000000 0.000000 0.000000 14.442876 1.769966 -1.129996 6.917184 8.116569 -7.297340 -59.940490 31.944183 -22.024012 -23.304095 76.585094 -5.138796 0.000000 0.000000 0.000000 
4.300750 191.319794 -24.177160 0.000000 0.000000 0.000000 -20.582678 8.576864 -3.134680 -71.168604 8.426776 18.466810 76.208136 -3.517277 -4.724973 13.694964 -2.096007 -15.628555 0.000000 0.000000 0.000000 -29.272896 4.343128 -7.485390 -68.078961 5.668812 -22.067653 85.976283 1.947002 5.121643 18.764734 -1.241281 21.003006 0.000000 0.000000 0.000000 3.577784 4.190430 0.564951 -0.546127 1.564360 2.667359 19.629364 -1.427147 0.765578 13.725231 -0.729439 -0.906833 0.000000 0.000000 0.000000 7.232510 -0.031311 -2.237111 1.635188 0.305102 0.453207 0.000000 0.000000 0.000000 13.303428 0.490741 2.889777 4.218944 -10.797192 19.051715 -70.466877 -34.799889 3.328738 -14.150462 -67.042842 15.578012 0.000000 0.000000 0.000000 15.468077 1.890539 -1.078264 7.466418 8.205180 -7.921820 -60.775481 32.232653 -23.737469 -24.796524 75.736908 -4.492165 0.000000 0.000000 0.000000 
4.071297 190.955490 -24.661774 0.000000 0.000000 0.000000 -21.846090 6.881096 -3.335730 -72.247829 7.879873 18.257896 74.966872 -3.834391 -4.982069 13.117506 -2.265574 -16.300737 0.000000 0.000000 0.000000 -30.624304 1.784308 -6.720891 -69.355920 4.802602 -21.189607 82.903866 2.443431 4.699069 17.098118 -0.656833 20.939781 0.000000 0.000000 0.000000 3.645804 4.825414 0.547434 -1.699499 0.857455 2.908396 20.865333 -1.343406 1.005589 14.795351 -0.733165 -0.919301 0.000000 0.000000 0.000000 8.005942 0.119462 -2.263496 2.026834 0.378602 0.543124 0.000000 0.000000 0.000000 14.399022 0.677667 3.079268 4.717312 -10.899531 20.829271 -72.555966 -34.076271 4.034219 -16.009294 -65.568402 14.843451 0.000000 0.000000 0.000000 16.446549 1.992756 -1.037306 7.974339 8.240480 -8.629072 -61.479687 32.302335 -25.539768 -25.845863 74.451753 -4.272371 0.000000 0.000000 0.000000 
3.784807 190.458298 -24.987312 0.000000 0.000000 0.000000 -22.745215 5.276880 -3.656327 -72.929188 7.473345 17.948895 73.349279 -4.006551 -5.000503 12.402850 -2.422569 -16.527458 0.000000 0.000000 0.000000 -31.547616 -0.735765 -5.803387 -70.254090 3.794756 -20.210875 79.581102 2.874487 4.200011 15.322433 -0.105419 20.657446 0.000000 0.000000 0.000000 3.725053 5.419222 0.536863 -2.938325 0.157919 3.083591 21.965545 -1.286386 1.201960 15.794049 -0.749633 -0.952915 0.000000 0.000000 0.000000 8.771030 0.253867 -2.292872 2.408369 0.446149 0.632962 0.000000 0.000000 0.000000 15.385831 0.849784 3.252865 5.124783 -10.948062 22.536703 -74.414795 -33.182097 4.772578 -17.710230 -63.854776 14.217535 0.000000 0.000000 0.000000 17.358280 2.070130 -1.015187 8.432582 8.214768 -9.462906 -62.092041 32.163381 -27.360085 -26.577489 72.765810 -4.331249 0.000000 0.000000 0.000000 
3.442107 189.840439 -25.159275 0.000000 0.000000 0.000000 -23.262916 3.838265 -4.060383 -73.217142 7.213990 17.565112 71.455417 -4.041993 -4.785188 11.582041 -2.567561 -16.313439 0.000000 0.000000 0.000000 -32.087382 -3.179548 -4.801795 -70.819281 2.697708 -19.187291 76.191389 3.238880 3.636070 13.529486 0.414232 20.163769 0.000000 0.000000 0.000000 3.814313 5.962654 0.530833 -4.258196 -0.536790 3.168037 22.892304 -1.263229 1.352624 16.698861 -0.780462 -1.007932 0.000000 0.000000 0.000000 9.502674 0.366827 -2.320575 2.768657 0.505017 0.724495 0.000000 0.000000 0.000000 16.242067 1.000677 3.403433 5.428370 -10.960600 24.142369 -76.051930 -32.100912 5.494892 -19.258902 -61.878290 13.657836 0.000000 0.000000 0.000000 18.185534 2.118419 -1.019199 8.834562 8.127631 -10.462094 -62.654848 31.838896 -29.118903 -27.134588 70.740706 -4.502041 0.000000 0.000000 0.000000 
3.048947 189.108047 -25.182957 0.000000 0.000000 0.000000 -23.427559 2.630083 -4.503238 -73.155895 7.094657 17.137126 69.409093 -3.964934 -4.358155 10.693717 -2.706214 -15.696769 0.000000 0.000000 0.000000 -32.339143 -5.528055 -3.803145 -71.134610 1.572397 -18.180495 72.935588 3.539606 3.026090 11.821714 0.904898 19.488273 0.000000 0.000000 0.000000 3.908830 6.451203 0.527082 -5.648655 -1.232153 3.149287 23.621325 -1.276248 1.460612 17.494225 -0.825493 -1.081611 0.000000 0.000000 0.000000 10.180948 0.456233 -2.341329 3.099608 0.553626 0.819828 0.000000 0.000000 0.000000 16.956940 1.126422 3.524484 5.624613 -10.952403 25.616952 -77.477807 -30.824067 6.145551 -20.652812 -59.640720 13.126173 0.000000 0.000000 0.000000 18.913998 2.135513 -1.055336 9.175862 7.983845 -11.656079 -63.209344 31.358218 -30.741032 -27.630169 68.451370 -4.652003 0.000000 0.000000 0.000000 
2.614680 188.261612 -25.063555 0.000000 0.000000 0.000000 -23.304870 1.702330 -4.939868 -72.822247 7.096989 16.698079 67.343643 -3.809427 -3.756823 9.782026 -2.847127 -14.745419 0.000000 0.000000 0.000000 -32.430326 -7.776904 -2.897374 -71.308869 0.479730 -17.251055 70.001598 3.781805 2.394880 10.296397 1.367358 18.679408 0.000000 0.000000 0.000000 4.000764 6.886550 0.523662 -7.094072 -1.930592 3.028577 24.142907 -1.322571 1.532752 18.172082 -0.882773 -1.168987 0.000000 0.000000 0.000000 10.791976 0.522772 -2.350330 3.396430 0.591593 0.920831 0.000000 0.000000 0.000000 17.531415 1.226198 3.611937 5.720355 -10.933693 26.941430 -78.702678 -29.355709 6.676605 -21.883409 -57.169554 12.594712 0.000000 0.000000 0.000000 19.534782 2.121368 -1.127564 9.455591 7.791628 -13.060183 -63.790811 30.750536 -32.164430 -28.133156 65.974368 -4.698641 0.000000 0.000000 0.000000 
2.150569 187.298386 -24.807453 0.000000 0.000000 0.000000 -22.985513 1.084747 -5.331372 -72.315529 7.194505 16.281214 65.388837 -3.612276 -3.029660 8.894371 -2.999320 -13.549893 0.000000 0.000000 0.000000 -32.497210 -9.929526 -2.162842 -71.459932 -0.527110 -16.451137 67.539383 3.971691 1.770244 9.032185 1.799178 17.798447 0.000000 0.000000 0.000000 4.080250 7.276233 0.518956 -8.576666 -2.627919 2.818368 24.461684 -1.394743 1.577978 18.731884 -0.948876 -1.263935 0.000000 0.000000 0.000000 11.327726 0.569428 -2.344144 3.657326 0.619620 1.028640 0.000000 0.000000 0.000000 17.977541 1.302237 3.664957 5.731943 -10.908866 28.110642 -79.734016 -27.715617 7.057042 -22.939238 -54.515066 12.048799 0.000000 0.000000 0.000000 20.046528 2.078159 -1.236996 9.678229 7.562197 -14.671216 -64.423997 30.041016 -33.344020 -28.675006 63.381587 -4.602521 0.000000 0.000000 0.000000 
1.668636 186.216400 -24.423439 0.000000 0.000000 0.000000 -22.570790 0.783171 -5.648562 -71.745038 7.355875 15.917402 63.660382 -3.407034 -2.230324 8.078595 -3.169875 -12.213133 0.000000 0.000000 0.000000 -32.663597 -11.989114 -1.656221 -71.696311 -1.407740 -15.817996 65.647325 4.116573 1.179077 8.081220 2.196174 16.911103 0.000000 0.000000 0.000000 4.136763 7.631492 0.511745 -10.080741 -3.313289 2.537655 24.595089 -1.482092 1.605644 19.179892 -1.019471 -1.360246 0.000000 0.000000 0.000000 11.785293 0.600760 -2.321269 3.882901 0.639247 1.143323 0.000000 0.000000 0.000000 18.316178 1.359050 3.685732 5.682900 -10.877623 29.132010 -80.575011 -25.938673 7.276237 -23.809411 -51.744270 11.486350 0.000000 0.000000 0.000000 20.456570 2.010491 -1.381276 9.855013 7.310258 -16.464938 -65.119324 29.250101 -34.251739 -29.261500 60.738707 -4.352999 0.000000 0.000000 0.000000 
1.181421 185.018921 -23.923107 0.000000 0.000000 0.000000 -22.158621 0.779679 -5.872612 -71.216094 7.548403 15.632560 62.251942 -3.220321 -1.411786 7.379038 -3.362335 -10.839689 0.000000 0.000000 0.000000 -33.025081 -13.951734 -1.407952 -72.100870 -2.136515 -15.369611 64.370182 4.225340 0.643798 7.467576 2.555348 16.078783 0.000000 0.000000 0.000000 4.160468 7.964006 0.501364 -11.596203 -3.971919 2.206877 24.570514 -1.572556 1.624143 19.527825 -1.090017 -1.452485 0.000000 0.000000 0.000000 12.166077 0.622069 -2.282392 4.075558 0.652485 1.263723 0.000000 0.000000 0.000000 18.573477 1.402190 3.678506 5.600439 -10.837307 30.020587 -81.224637 -24.071385 7.342331 -24.486597 -48.932657 10.914799 0.000000 0.000000 0.000000 20.780075 1.925347 -1.554442 10.003633 7.054331 -18.396718 -65.871007 28.395111 -34.874850 -29.882672 58.106475 -3.955465 0.000000 0.000000 0.000000 
